<svg width="144" height="144" viewBox="0 0 144 144" fill="none" xmlns="http://www.w3.org/2000/svg">
<rect width="144" height="144" fill="black"/>
<path d="M52.8919 33.9423C52.8919 31.1848 56.3758 29.4069 58.1177 28.8627C72.268 39.9289 68.911 56.8004 90.7721 50.8138C74.3088 52.9907 74.4789 42.6502 76.6218 37.2077C77.3475 38.1148 79.1616 39.9289 80.6129 39.9289C84.3864 30.7857 91.4978 28.7418 94.5818 28.8627C95.247 30.314 95.888 34.5591 93.1305 39.9289C101.984 36.3007 110.728 39.0219 113.993 40.836C113.751 44.9481 110.437 53.5927 99.1172 55.275C104.632 57.1023 106.495 61.7701 106.737 63.8756C103.955 65.3873 96.6863 67.5038 89.8651 63.8756C89.8046 64.6012 89.1757 66.5242 87.1438 68.4109C79.597 65.3632 80.1292 57.5866 81.3386 54.0792C79.5245 54.0188 75.0617 53.3899 71.7237 51.358L72.4493 57.3447C72.4493 58.4332 71.8325 60.719 69.3653 61.1544C69.5467 51.358 60.1132 36.4821 52.8919 33.9423Z" fill="#DCBE84"/>
<path fill-rule="evenodd" clip-rule="evenodd" d="M33.0923 51.9552C26.8866 55.3235 24.5853 63.087 27.9522 69.2953C31.319 75.5036 39.0791 77.8059 45.2847 74.4376C46.5958 73.726 48.2352 74.2124 48.9465 75.524C48.9818 75.589 49.0141 75.6548 49.0435 75.7213C49.696 76.9869 49.2525 78.5569 48.0102 79.2872C41.7727 82.954 39.6178 90.7459 43.2075 96.8575C46.8346 103.033 54.7791 105.098 60.9519 101.469C61.3275 101.248 61.7345 101.128 62.1415 101.102C63.241 100.946 64.368 101.484 64.9126 102.524C65.6045 103.846 65.0942 105.479 63.7729 106.171C57.5443 109.434 55.1267 117.222 58.4617 123.593C61.7966 129.965 69.5717 132.413 75.8002 129.15C82.0287 125.887 84.4463 118.1 81.1114 111.728C80.4194 110.406 80.9297 108.773 82.2511 108.081C83.5725 107.389 85.2046 107.899 85.8965 109.221C90.5879 118.184 87.2292 129.263 78.3059 133.937C69.3826 138.612 58.368 135.063 53.6765 126.1C50.6987 120.411 50.9642 113.87 53.8375 108.654C47.7398 108.467 41.8694 105.246 38.5505 99.5952C35.0935 93.7095 35.3814 86.8247 38.54 81.3807C32.3239 81.1529 26.3856 77.7383 23.2045 71.8723C18.415 63.0407 21.6887 51.997 30.5164 47.2054C39.3244 42.4246 50.3338 45.6744 55.1403 54.4614C59.2353 61.2284 60.6504 67.3018 61.9354 72.8165L61.9356 72.8174L61.9358 72.8184C62.1326 73.663 62.3264 74.4945 62.5262 75.3133C64.0213 81.4394 65.9023 87.2339 71.8771 93.8849C77.5612 100.212 83.3444 100.217 86.964 98.1072C90.7593 95.8952 92.8486 91.0934 90.7798 86.0975C89.0016 81.8036 86.6904 80.574 84.753 80.1947C82.863 79.8247 80.8762 82.0089 79.143 82.3407C78.7786 82.4104 78.417 82.4797 78.0577 82.5416C76.5878 82.7952 75.0305 82.0893 74.5497 79.2993C74.1303 76.8656 75.8618 75.6293 77.3317 75.3758C77.5332 75.341 77.7772 75.2923 78.0577 75.2362C79.745 74.8989 82.7549 74.2972 85.7903 74.8914C89.6805 75.653 93.371 78.236 95.77 84.0293C98.9226 91.6424 95.7004 99.2694 89.683 102.776C83.4899 106.386 74.9592 105.4 67.8597 97.497C61.051 89.9179 58.8808 83.1589 57.2789 76.5951C57.0637 75.7135 56.8596 74.8425 56.6571 73.9782C55.3646 68.4617 54.1361 63.2183 50.4902 57.2114L50.4561 57.1553L50.4248 57.0975C47.0579 50.8892 39.2979 48.5869 33.0923 51.9552Z" fill="#DCBE84"/>
</svg>
