<svg width="426" height="129" viewBox="0 0 426 129" fill="none" xmlns="http://www.w3.org/2000/svg">
<path d="M31.8919 25.9423C31.8919 23.1848 35.3758 21.4069 37.1177 20.8627C51.268 31.9289 47.911 48.8004 69.7721 42.8138C53.3088 44.9907 53.4789 34.6502 55.6218 29.2077C56.3475 30.1148 58.1616 31.9289 59.6129 31.9289C63.3864 22.7857 70.4978 20.7418 73.5818 20.8627C74.247 22.314 74.888 26.5591 72.1305 31.9289C80.9835 28.3007 89.7276 31.0219 92.9931 32.836C92.7512 36.9481 89.4374 45.5927 78.1172 47.275C83.6321 49.1023 85.4947 53.7701 85.7365 55.8756C82.9549 57.3873 75.6863 59.5038 68.8651 55.8756C68.8046 56.6012 68.1757 58.5242 66.1438 60.4109C58.597 57.3632 59.1292 49.5866 60.3386 46.0792C58.5245 46.0188 54.0617 45.3899 50.7237 43.358L51.4493 49.3447C51.4493 50.4332 50.8325 52.719 48.3653 53.1544C48.5467 43.358 39.1132 28.4821 31.8919 25.9423Z" fill="#DCBE84"/>
<path fill-rule="evenodd" clip-rule="evenodd" d="M12.0923 43.9552C5.88662 47.3235 3.58533 55.087 6.95219 61.2953C10.319 67.5036 18.0791 69.8059 24.2847 66.4376C25.5958 65.726 27.2352 66.2124 27.9465 67.524C27.9818 67.589 28.0141 67.6548 28.0435 67.7213C28.696 68.9869 28.2525 70.5569 27.0102 71.2872C20.7727 74.954 18.6178 82.7459 22.2075 88.8575C25.8346 95.033 33.7791 97.0976 39.9519 93.4688C40.3275 93.248 40.7345 93.1284 41.1415 93.1017C42.241 92.9461 43.368 93.4839 43.9126 94.5243C44.6045 95.8463 44.0942 97.4791 42.7729 98.1713C36.5443 101.434 34.1267 109.222 37.4617 115.593C40.7966 121.965 48.5717 124.413 54.8002 121.15C61.0287 117.887 63.4463 110.1 60.1114 103.728C59.4194 102.406 59.9297 100.773 61.2511 100.081C62.5725 99.3887 64.2046 99.8992 64.8965 101.221C69.5879 110.184 66.2292 121.263 57.3059 125.937C48.3826 130.612 37.368 127.063 32.6765 118.1C29.6987 112.411 29.9642 105.87 32.8375 100.654C26.7398 100.467 20.8694 97.2459 17.5505 91.5952C14.0935 85.7095 14.3814 78.8247 17.54 73.3807C11.3239 73.1529 5.38564 69.7383 2.20445 63.8723C-2.58502 55.0407 0.688652 43.997 9.51639 39.2054C18.3244 34.4246 29.3338 37.6744 34.1403 46.4614C38.2353 53.2284 39.6504 59.3018 40.9354 64.8165L40.9356 64.8174L40.9358 64.8184C41.1326 65.663 41.3264 66.4945 41.5262 67.3133C43.0213 73.4394 44.9023 79.2339 50.8771 85.8849C56.5612 92.2121 62.3444 92.2168 65.964 90.1072C69.7593 87.8952 71.8486 83.0934 69.7798 78.0975C68.0016 73.8036 65.6904 72.574 63.753 72.1947C61.863 71.8247 59.8762 74.0089 58.143 74.3407C57.7786 74.4104 57.417 74.4797 57.0577 74.5416C55.5878 74.7952 54.0305 74.0893 53.5497 71.2993C53.1303 68.8656 54.8618 67.6293 56.3317 67.3758C56.5332 67.341 56.7772 67.2923 57.0577 67.2362C58.745 66.8989 61.7549 66.2972 64.7903 66.8914C68.6805 67.653 72.371 70.236 74.77 76.0293C77.9226 83.6424 74.7004 91.2694 68.683 94.7765C62.4899 98.3859 53.9592 97.3999 46.8597 89.497C40.051 81.9179 37.8808 75.1589 36.2789 68.5951C36.0637 67.7135 35.8596 66.8425 35.6571 65.9782C34.3646 60.4617 33.1361 55.2183 29.4902 49.2114L29.4561 49.1553L29.4248 49.0975C26.0579 42.8892 18.2979 40.5869 12.0923 43.9552Z" fill="#DCBE84"/>
<path d="M404.681 111.777C401.842 111.777 399.343 111.118 397.184 109.798C395.025 108.439 393.346 106.56 392.146 104.161C390.947 101.722 390.347 98.8833 390.347 95.6447C390.347 92.4062 390.947 89.5875 392.146 87.1886C393.346 84.7497 395.025 82.8705 397.184 81.5511C399.343 80.2317 401.842 79.572 404.681 79.572C407 79.572 409.019 80.1918 410.738 81.4312C412.457 82.6306 413.817 84.2899 414.816 86.4089V64.9986L410.618 64.3989V63.1995H420.813V109.379L425.011 109.978V111.178H414.816V104.941C413.817 107.06 412.457 108.739 410.738 109.978C409.019 111.178 407 111.777 404.681 111.777ZM405.28 110.278C407.04 110.278 408.619 109.778 410.018 108.779C411.458 107.739 412.597 106.38 413.437 104.701C414.316 102.981 414.776 101.122 414.816 99.1232V92.2263C414.776 90.2272 414.316 88.388 413.437 86.7088C412.597 84.9896 411.458 83.6302 410.018 82.6307C408.619 81.5911 407.04 81.0714 405.28 81.0714C399.723 81.0714 396.944 84.9296 396.944 92.6461V98.6434C396.944 106.4 399.723 110.278 405.28 110.278Z" fill="white"/>
<path d="M351.319 109.978L355.517 109.379V81.911L351.319 81.3113V80.1118H361.515V86.5889C362.994 84.4299 364.733 82.7306 366.732 81.4912C368.731 80.2118 370.89 79.5721 373.209 79.5721C376.088 79.5721 378.347 80.2918 379.986 81.7311C381.666 83.1705 382.505 85.3095 382.505 88.1482V109.379L386.703 109.978V111.178H372.91V109.978L376.508 109.379V88.2681C376.508 86.1891 376.088 84.5898 375.248 83.4703C374.409 82.3108 373.109 81.7311 371.35 81.7311C369.511 81.7311 367.732 82.4108 366.013 83.7702C364.333 85.0896 362.834 86.7288 361.515 88.6879V109.379L365.113 109.978V111.178H351.319V109.978Z" fill="white"/>
<path d="M327.187 111.777C324.628 111.777 322.529 111.118 320.89 109.798C319.25 108.439 318.431 106.44 318.431 103.801C318.431 100.043 320.01 97.384 323.169 95.8247C326.327 94.2254 329.985 93.4258 334.144 93.4258H338.162V88.8079C338.162 86.7288 337.922 85.1296 337.442 84.0101C337.002 82.8506 336.303 82.051 335.343 81.6112C334.383 81.1314 333.084 80.8915 331.445 80.8915C329.566 80.8915 328.166 81.2713 327.247 82.031C326.327 82.7506 325.867 83.7302 325.867 84.9696C325.867 86.1291 326.427 86.8888 327.547 87.2486C327.547 88.2481 327.167 89.1277 326.407 89.8874C325.647 90.6471 324.748 91.0269 323.708 91.0269C322.589 91.0269 321.689 90.727 321.009 90.1273C320.33 89.4876 319.99 88.528 319.99 87.2486C319.99 84.9297 321.149 83.0705 323.468 81.6711C325.787 80.2718 328.686 79.5721 332.164 79.5721C340.161 79.5721 344.159 83.0505 344.159 90.0073V107.16C344.159 108.039 344.339 108.719 344.699 109.199C345.099 109.638 345.658 109.858 346.378 109.858C347.058 109.858 347.597 109.638 347.997 109.199C348.397 108.719 348.597 108.079 348.597 107.28H349.856C349.856 108.679 349.397 109.778 348.477 110.578C347.597 111.378 346.358 111.777 344.759 111.777C342.92 111.777 341.36 111.258 340.081 110.218C338.841 109.139 338.202 107.479 338.162 105.24C337.202 107.28 335.723 108.879 333.724 110.038C331.765 111.198 329.586 111.777 327.187 111.777ZM330.485 109.139C331.565 109.139 332.664 108.819 333.784 108.179C334.943 107.539 335.923 106.62 336.722 105.42C337.522 104.181 338.002 102.702 338.162 100.982V94.7452H334.144C330.865 94.7452 328.406 95.4849 326.767 96.9642C325.168 98.4035 324.368 100.443 324.368 103.081C324.368 105.28 324.888 106.84 325.927 107.759C326.967 108.679 328.486 109.139 330.485 109.139Z" fill="white"/>
<path d="M277.601 111.178V109.918L283.119 109.019V65.3585L277.601 64.5189V63.1995H295.233V64.5189L289.716 65.3585V109.738H307.647L312.565 96.5443H314.184V111.178H277.601Z" fill="white"/>
<path d="M259.996 111.777C257.038 111.777 254.359 111.118 251.96 109.798C249.561 108.439 247.662 106.54 246.263 104.101C244.863 101.662 244.164 98.8433 244.164 95.6448C244.164 92.4462 244.843 89.6475 246.203 87.2486C247.602 84.8097 249.461 82.9306 251.78 81.6112C254.139 80.2518 256.758 79.5721 259.637 79.5721C262.155 79.5721 264.414 80.1318 266.413 81.2513C268.413 82.3708 269.972 83.9301 271.091 85.9292C272.211 87.8883 272.791 90.1473 272.831 92.7061H250.761V98.6434C250.761 102.162 251.54 105.021 253.1 107.22C254.699 109.379 256.998 110.458 259.996 110.458C262.755 110.458 265.194 109.678 267.313 108.119C269.432 106.56 270.732 104.541 271.211 102.062H272.591C272.031 105.021 270.612 107.379 268.333 109.139C266.054 110.898 263.275 111.777 259.996 111.777ZM266.234 91.2068C266.234 87.7284 265.694 85.1496 264.614 83.4703C263.535 81.7511 261.856 80.8915 259.577 80.8915C256.898 80.8915 254.819 81.8311 253.339 83.7102C251.86 85.5894 251.02 88.0882 250.821 91.2068H266.234Z" fill="white"/>
<path d="M204.365 126.951L208.563 126.351V81.971L204.365 81.3713V80.1718H214.561V86.469C215.56 84.3099 216.9 82.6307 218.579 81.4312C220.298 80.1918 222.337 79.5721 224.696 79.5721C227.535 79.5721 230.034 80.2518 232.193 81.6112C234.352 82.9306 236.031 84.8097 237.23 87.2486C238.43 89.6475 239.03 92.4662 239.03 95.7048C239.03 98.9433 238.43 101.782 237.23 104.221C236.031 106.62 234.352 108.479 232.193 109.798C230.034 111.118 227.535 111.777 224.696 111.777C222.337 111.777 220.298 111.178 218.579 109.978C216.9 108.739 215.56 107.06 214.561 104.941V126.351L220.198 126.951V128.15H204.365V126.951ZM224.096 110.278C229.654 110.278 232.433 106.42 232.433 98.7034V92.7061C232.433 84.9496 229.654 81.0714 224.096 81.0714C222.337 81.0714 220.738 81.5912 219.298 82.6307C217.859 83.6302 216.72 84.9896 215.88 86.7088C215.04 88.4281 214.601 90.2872 214.561 92.2863V98.7034C214.561 100.742 214.96 102.662 215.76 104.461C216.6 106.22 217.739 107.639 219.179 108.719C220.658 109.758 222.297 110.278 224.096 110.278Z" fill="white"/>
<path d="M180.593 111.777C178.034 111.777 175.935 111.118 174.296 109.798C172.657 108.439 171.837 106.44 171.837 103.801C171.837 100.043 173.416 97.384 176.575 95.8247C179.733 94.2254 183.392 93.4258 187.55 93.4258H191.568V88.8079C191.568 86.7288 191.328 85.1296 190.848 84.0101C190.408 82.8506 189.709 82.051 188.749 81.6112C187.79 81.1314 186.49 80.8915 184.851 80.8915C182.972 80.8915 181.572 81.2713 180.653 82.031C179.733 82.7506 179.274 83.7302 179.274 84.9696C179.274 86.1291 179.833 86.8888 180.953 87.2486C180.953 88.2481 180.573 89.1277 179.813 89.8874C179.054 90.6471 178.154 91.0269 177.115 91.0269C175.995 91.0269 175.095 90.727 174.416 90.1273C173.736 89.4876 173.396 88.528 173.396 87.2486C173.396 84.9297 174.556 83.0705 176.875 81.6711C179.194 80.2718 182.092 79.5721 185.571 79.5721C193.567 79.5721 197.565 83.0505 197.565 90.0073V107.16C197.565 108.039 197.745 108.719 198.105 109.199C198.505 109.638 199.065 109.858 199.784 109.858C200.464 109.858 201.004 109.638 201.404 109.199C201.803 108.719 202.003 108.079 202.003 107.28H203.263C203.263 108.679 202.803 109.778 201.883 110.578C201.004 111.378 199.764 111.777 198.165 111.777C196.326 111.777 194.767 111.258 193.487 110.218C192.248 109.139 191.608 107.479 191.568 105.24C190.608 107.28 189.129 108.879 187.13 110.038C185.171 111.198 182.992 111.777 180.593 111.777ZM183.891 109.139C184.971 109.139 186.07 108.819 187.19 108.179C188.349 107.539 189.329 106.62 190.129 105.42C190.928 104.181 191.408 102.702 191.568 100.982V94.7452H187.55C184.271 94.7452 181.812 95.4849 180.173 96.9642C178.574 98.4035 177.774 100.443 177.774 103.081C177.774 105.28 178.294 106.84 179.334 107.759C180.373 108.679 181.892 109.139 183.891 109.139Z" fill="white"/>
<path d="M144.167 109.978L148.365 109.379V81.911L144.167 81.3113V80.1118H154.362V84.7297C156.881 81.2913 159.72 79.5721 162.879 79.5721C164.398 79.5721 165.737 79.9719 166.897 80.7715C168.056 81.5312 168.636 82.6307 168.636 84.07C168.636 85.1096 168.296 85.9892 167.616 86.7088C166.937 87.3885 166.037 87.7284 164.918 87.7284C163.638 87.7284 162.599 87.2286 161.799 86.2291C162.239 85.6693 162.459 85.0696 162.459 84.4299C162.459 83.7502 162.219 83.2104 161.739 82.8106C161.299 82.3708 160.699 82.1509 159.94 82.1509C159.1 82.1509 158.241 82.5507 157.361 83.3504C156.481 84.11 155.482 85.3095 154.362 86.9487V109.379L159.16 109.978V111.178H144.167V109.978Z" fill="white"/>
<path d="M118.71 112.377C114.352 112.377 110.534 111.318 107.255 109.199C103.977 107.08 101.438 104.121 99.6388 100.323C97.8796 96.5243 97 92.1463 97 87.1886C97 82.2308 97.9396 77.8528 99.8187 74.0545C101.698 70.2563 104.317 67.2976 107.675 65.1786C111.074 63.0595 114.952 62 119.31 62C123.428 62 126.906 63.0395 129.745 65.1186L133.403 62H134.663V76.8733H133.403L129.445 66.9777C126.567 64.5788 123.188 63.3794 119.31 63.3794C116.511 63.3794 113.992 64.099 111.753 65.5384C109.554 66.9777 107.815 69.0768 106.536 71.8355C105.296 74.5943 104.677 77.8728 104.677 81.6711V92.6461C104.677 96.4444 105.256 99.7229 106.416 102.482C107.615 105.24 109.254 107.359 111.333 108.839C113.453 110.278 115.911 110.998 118.71 110.998C122.149 110.998 124.807 109.938 126.687 107.819C128.606 105.7 129.565 102.861 129.565 99.3031V93.7256L123.988 92.886V91.5666H141.92V92.886L136.342 93.7256V99.3031C136.342 101.582 135.722 103.721 134.483 105.72C133.244 107.679 131.304 109.279 128.666 110.518C126.027 111.757 122.708 112.377 118.71 112.377Z" fill="white"/>
</svg>
